<?xml version="1.0" encoding="UTF-8" standalone="no"?>
<!-- Generator: Adobe Illustrator 19.0.0, SVG Export Plug-In . SVG Version: 6.00 Build 0)  -->

<svg
   xmlns:dc="http://purl.org/dc/elements/1.1/"
   xmlns:cc="http://creativecommons.org/ns#"
   xmlns:rdf="http://www.w3.org/1999/02/22-rdf-syntax-ns#"
   xmlns:svg="http://www.w3.org/2000/svg"
   xmlns="http://www.w3.org/2000/svg"
   xmlns:sodipodi="http://sodipodi.sourceforge.net/DTD/sodipodi-0.dtd"
   xmlns:inkscape="http://www.inkscape.org/namespaces/inkscape"
   version="1.1"
   class="printer"
   x="0px"
   y="0px"
   viewBox="0 0 512 512"
   style="enable-background:new 0 0 512 512;"
   xml:space="preserve"
   inkscape:version="0.91 r13725"
   sodipodi:docname="custom_printer.svg"
   id="svg3455"><metadata
     id="metadata3934"><rdf:RDF><cc:Work
         rdf:about=""><dc:format>image/svg+xml</dc:format><dc:type
           rdf:resource="http://purl.org/dc/dcmitype/StillImage" /><dc:title /></cc:Work></rdf:RDF></metadata><defs
     id="defs3932" /><sodipodi:namedview
     pagecolor="#ffffff"
     bordercolor="#666666"
     borderopacity="1"
     objecttolerance="10"
     gridtolerance="10"
     guidetolerance="10"
     inkscape:pageopacity="0"
     inkscape:pageshadow="2"
     inkscape:window-width="1280"
     inkscape:window-height="682"
     id="namedview3930"
     showgrid="false"
     inkscape:zoom="0.72199324"
     inkscape:cx="287.14468"
     inkscape:cy="303.01314"
     inkscape:window-x="0"
     inkscape:window-y="0"
     inkscape:window-maximized="0"
     inkscape:current-layer="g3536" /><g
     id="g3838"
     transform="matrix(2.8626595,0,0,2.7671385,287.23082,282.48089)"><g
       id="g3784"><polygon
         id="polygon3786"
         points="48,0 10,0 0,16 0,58 58,58 58,16 "
         style="fill:#a98258"
         transform="matrix(1.1167877,0,0,1.1208192,-0.48383491,2.5026837)" /><polygon
         id="polygon3798"
         points="58,16 48,0 10,0 0,16 "
         style="fill:#daae86"
         transform="matrix(1.1167877,0,0,1.1208192,-0.48383491,2.5026837)" /><rect
         id="rect3800"
         height="17.933107"
         width="2.2335753"
         style="fill:#f4d5bd"
         x="30.786222"
         y="2.5026839" /></g><g
       id="g3802" /><g
       id="g3804" /><g
       id="g3806" /><g
       id="g3808" /><g
       id="g3810" /><g
       id="g3812" /><g
       id="g3814" /><g
       id="g3816" /><g
       id="g3818" /><g
       id="g3820" /><g
       id="g3822" /><g
       id="g3824" /><g
       id="g3826" /><g
       id="g3828" /><g
       id="g3830" /></g><g
     id="g3900" /><g
     id="g3902" /><g
     id="g3904" /><g
     id="g3906" /><g
     id="g3908" /><g
     id="g3910" /><g
     id="g3912" /><g
     id="g3914" /><g
     id="g3916" /><g
     id="g3918" /><g
     id="g3920" /><g
     id="g3922" /><g
     id="g3924" /><g
     id="g3926" /><g
     id="g3928" /><g
     id="g5007"
     transform="translate(148.76251,235.9613)"><g
       id="g4971" /><g
       id="g4973" /><g
       id="g4975" /><g
       id="g4977" /><g
       id="g4979" /><g
       id="g4981" /><g
       id="g4983" /><g
       id="g4985" /><g
       id="g4987" /><g
       id="g4989" /><g
       id="g4991" /><g
       id="g4993" /><g
       id="g4995" /><g
       id="g4997" /><g
       id="g4999" /></g><g
     id="g3536"
     transform="matrix(0.5779912,0,0,0.61646602,26.316033,1.0769988)"><g
       id="g3870"><path
         id="path3872"
         d="m 52.966,392.828 -17.656,0 c -4.875,0 -8.828,-3.953 -8.828,-8.828 l 0,-18.759 35.31,0 0,18.759 c 10e-4,4.875 -3.951,8.828 -8.826,8.828 z"
         style="fill:#707487"
         inkscape:connector-curvature="0" /><path
         id="path3874"
         d="m 476.69,392.828 -17.655,0 c -4.875,0 -8.828,-3.953 -8.828,-8.828 l 0,-17.655 35.31,0 0,17.655 c 0,4.875 -3.952,8.828 -8.827,8.828 z"
         style="fill:#707487"
         inkscape:connector-curvature="0" /></g><path
       id="path3882"
       d="m 366.734,87.106 -4.803,14.411 -211.862,0 -4.803,-14.411 c -2.403,-7.209 -9.15,-12.072 -16.749,-12.072 l -31.414,0 c -9.751,0 -17.655,7.904 -17.655,17.655 l 0,61.793 353.103,0 0,-61.792 c 0,-9.751 -7.904,-17.655 -17.655,-17.655 l -31.413,0 c -7.599,-10e-4 -14.345,4.862 -16.749,12.071 z"
       style="fill:#959cb3"
       inkscape:connector-curvature="0" /><path
       id="path3892"
       d="m 450.207,313.379 -388.414,0 0,-17.655 c 0,-9.751 7.904,-17.655 17.655,-17.655 l 353.103,0 c 9.751,0 17.655,7.904 17.655,17.655 l 0,17.655 z"
       style="fill:#707487"
       inkscape:connector-curvature="0" /><path
       id="path3876"
       d="m 485.517,375.172 -459.034,0 C 11.857,375.172 0,363.316 0,348.69 L 0,172.138 c 0,-14.626 11.857,-26.483 26.483,-26.483 l 459.034,0 c 14.626,0 26.483,11.857 26.483,26.483 l 0,176.552 c 0,14.626 -11.857,26.482 -26.483,26.482 z"
       style="fill:#d7deed"
       inkscape:connector-curvature="0" /><path
       id="path3878"
       d="m 0,295.724 0,52.966 c 0,14.626 11.857,26.483 26.483,26.483 l 459.034,0 c 14.626,0 26.483,-11.857 26.483,-26.483 l 0,-52.966 -512,0 z"
       style="fill:#afb9d2"
       inkscape:connector-curvature="0" /><path
       inkscape:connector-curvature="0"
       id="path3880-6"
       d="m 431.19168,366.6209 -353.104006,0 c -9.750998,0 -17.654998,-5.85786 -17.654998,-13.08458 l 0,-32.71183 c 0,-7.22671 7.904,-13.08457 17.654998,-13.08457 l 353.103006,0 c 9.751,0 17.655,5.85786 17.655,13.08457 l 0,32.71183 c 10e-4,7.22672 -7.903,13.08458 -17.654,13.08458 z"
       style="fill:#464655" /><g
       id="g3468"
       inkscape:label="#g5377"
       transform="translate(40.15464,-61.793814)"
       class="label"><rect
         style="fill:#eff2fa;fill-opacity:1"
         id="rect3985"
         width="116.89542"
         height="141.96809"
         x="144.77155"
         y="-426.45523"
         transform="scale(1,-1)" /><g
         transform="matrix(0.23696726,0,0,0.14454372,131.56494,370.78427)"
         id="g4923"
         style="stroke-width:1.62097931;stroke-miterlimit:4;stroke-dasharray:none"><g
           id="g5316"
           transform="matrix(0.77898492,0,0,0.78366057,23.062923,38.317965)"><rect
             x="95"
             y="145.8"
             style="fill:#324a5e;stroke-width:1.62097931;stroke-miterlimit:4;stroke-dasharray:none"
             width="20.700001"
             height="172.2581"
             id="rect4925" /><rect
             x="392.20001"
             y="145.8"
             style="fill:#324a5e;stroke-width:1.62097931;stroke-miterlimit:4;stroke-dasharray:none"
             width="20.700001"
             height="168.87027"
             id="rect4927" /><rect
             x="128.60001"
             y="145.8"
             style="fill:#324a5e;stroke-width:1.62097931;stroke-miterlimit:4;stroke-dasharray:none"
             width="13.7"
             height="170.60001"
             id="rect4929" /><rect
             x="150.8"
             y="145.8"
             style="fill:#324a5e;stroke-width:1.62097931;stroke-miterlimit:4;stroke-dasharray:none"
             width="13.7"
             height="170.60001"
             id="rect4931" /><rect
             x="173"
             y="145.8"
             style="fill:#324a5e;stroke-width:1.62097931;stroke-miterlimit:4;stroke-dasharray:none"
             width="13.7"
             height="170.60001"
             id="rect4933" /><rect
             x="198.8"
             y="145.8"
             style="fill:#324a5e;stroke-width:1.62097931;stroke-miterlimit:4;stroke-dasharray:none"
             width="22.1"
             height="170.60001"
             id="rect4935" /><rect
             x="234.60001"
             y="145.8"
             style="fill:#324a5e;stroke-width:1.62097931;stroke-miterlimit:4;stroke-dasharray:none"
             width="22.1"
             height="170.60001"
             id="rect4937" /><rect
             x="270.39999"
             y="145.8"
             style="fill:#324a5e;stroke-width:1.62097931;stroke-miterlimit:4;stroke-dasharray:none"
             width="22.1"
             height="170.60001"
             id="rect4939" /><rect
             x="303.39999"
             y="145.8"
             style="fill:#324a5e;stroke-width:1.62097931;stroke-miterlimit:4;stroke-dasharray:none"
             width="6.8000002"
             height="170.60001"
             id="rect4941" /><rect
             x="314.39999"
             y="145.8"
             style="fill:#324a5e;stroke-width:1.62097931;stroke-miterlimit:4;stroke-dasharray:none"
             width="6.8000002"
             height="170.60001"
             id="rect4943" /><rect
             x="325.39999"
             y="145.8"
             style="fill:#324a5e;stroke-width:1.62097931;stroke-miterlimit:4;stroke-dasharray:none"
             width="6.8000002"
             height="170.60001"
             id="rect4945" /><rect
             x="338.10001"
             y="145.8"
             style="fill:#324a5e;stroke-width:1.62097931;stroke-miterlimit:4;stroke-dasharray:none"
             width="11"
             height="170.60001"
             id="rect4947" /><rect
             x="355.89999"
             y="145.8"
             style="fill:#324a5e;stroke-width:1.62097931;stroke-miterlimit:4;stroke-dasharray:none"
             width="11"
             height="170.60001"
             id="rect4949" /><rect
             x="373.60001"
             y="145.8"
             style="fill:#324a5e;stroke-width:1.62097931;stroke-miterlimit:4;stroke-dasharray:none"
             width="11"
             height="170.60001"
             id="rect4951" /></g><rect
           id="rect4951-7"
           height="242.51637"
           width="28.19709"
           style="fill:#324a5e;stroke-width:1.62097931;stroke-miterlimit:4;stroke-dasharray:none"
           y="95.373184"
           x="477.55334"
           transform="matrix(0,-1,1,0,0,0)" /><rect
           style="fill:#324a5e;fill-opacity:1;stroke:#324a5e;stroke-width:1.33419144;stroke-miterlimit:4;stroke-dasharray:none;stroke-opacity:1"
           id="rect5196"
           width="144.57497"
           height="203.55705"
           x="375.1088"
           y="-510.42838" /><rect
           id="rect4951-7-5"
           height="242.51637"
           width="28.19709"
           style="fill:#324a5e;stroke-width:1.62097931;stroke-miterlimit:4;stroke-dasharray:none"
           y="96.406441"
           x="391.16345"
           transform="matrix(0,-1,1,0,0,0)" /><rect
           id="rect4951-7-6"
           height="242.51637"
           width="28.19709"
           style="fill:#324a5e;stroke-width:1.62097931;stroke-miterlimit:4;stroke-dasharray:none"
           y="96.406441"
           x="309.85535"
           transform="matrix(0,-1,1,0,0,0)" /><rect
           style="fill:none;fill-opacity:1;stroke:#324a5e;stroke-width:1.32192194;stroke-miterlimit:4;stroke-dasharray:none;stroke-opacity:1"
           id="rect5249"
           width="463.12738"
           height="308.51837"
           x="70.827065"
           y="-551.05157" /><rect
           style="fill:none;fill-opacity:1;stroke:#324a5e;stroke-width:2.08147335;stroke-miterlimit:4;stroke-dasharray:none;stroke-opacity:1"
           id="rect5251"
           width="462.53146"
           height="548.51666"
           x="71.125107"
           y="-191.67178" /><rect
           id="rect4951-7-6-9"
           height="192.92061"
           width="28.19709"
           style="fill:#324a5e;stroke-width:1.62097931;stroke-miterlimit:4;stroke-dasharray:none"
           y="96.406441"
           x="52.379673"
           transform="matrix(0,-1,1,0,0,0)" /><rect
           id="rect4951-7-6-9-2"
           height="176.38869"
           width="28.19709"
           style="fill:#324a5e;stroke-width:1.62097931;stroke-miterlimit:4;stroke-dasharray:none"
           y="337.15265"
           x="52.379658"
           transform="matrix(0,-1,1,0,0,0)" /><rect
           style="fill:#324a5e;fill-opacity:1;stroke:#324a5e;stroke-width:1.08633757;stroke-miterlimit:4;stroke-dasharray:none;stroke-opacity:1"
           id="rect5196-4"
           width="155.08423"
           height="125.80704"
           x="366.40326"
           y="153.50275" /><rect
           id="rect4951-7-6-9-0"
           height="192.92062"
           width="28.19709"
           style="fill:#324a5e;stroke-width:1.62097931;stroke-miterlimit:4;stroke-dasharray:none"
           y="96.406418"
           x="-59.419003"
           transform="matrix(0,-1,1,0,0,0)" /><rect
           id="rect4951-7-6-9-2-1"
           height="176.38869"
           width="28.19709"
           style="fill:#324a5e;stroke-width:1.62097931;stroke-miterlimit:4;stroke-dasharray:none"
           y="336.11938"
           x="-59.418999"
           transform="matrix(0,-1,1,0,0,0)" /></g></g><path
       inkscape:connector-curvature="0"
       id="path3880"
       d="m 430.12581,341.88812 -352.65883,0 c -9.738707,0 -17.632742,-6.5399 -17.632742,-14.60804 l 0,-36.52057 c 0,-8.06814 7.894035,-14.60804 17.632742,-14.60804 l 352.65783,0 c 9.7387,0 17.63274,6.5399 17.63274,14.60804 l 0,36.52057 c 0.001,8.06814 -7.89304,14.60804 -17.63174,14.60804 z"
       style="fill:#464655" /><path
       id="path3884"
       d="m 61.793,145.655 0,70.621 c 0,9.751 7.904,17.655 17.655,17.655 l 353.103,0 c 9.751,0 17.655,-7.904 17.655,-17.655 l 0,-70.621"
       style="fill:#afb9d2"
       inkscape:connector-curvature="0" /><path
       id="path3898"
       d="m 383.484,75.034 c -7.601,0 -14.346,4.863 -16.749,12.072 l -4.803,14.411 -211.863,0 -4.803,-14.411 c -2.403,-7.209 -9.15,-12.072 -16.749,-12.072 l -4.93,0 0,79.448 264.828,0 0,-79.448 -4.931,0 z"
       style="fill:#707487"
       inkscape:connector-curvature="0" /><circle
       id="circle3886"
       r="17.655001"
       cy="189.793"
       cx="397.241"
       style="fill:#ffffff" /><circle
       id="circle3888"
       r="13.241"
       cy="189.793"
       cx="353.103"
       style="fill:#00ffbe" /><path
       id="path3890"
       d="m 317.793,198.621 -44.138,0 c -4.875,0 -8.828,-3.948 -8.828,-8.828 0,-4.879 3.953,-8.828 8.828,-8.828 l 44.138,0 c 4.875,0 8.828,3.948 8.828,8.828 0,4.88 -3.953,8.828 -8.828,8.828 z"
       style="fill:#00b9dc"
       inkscape:connector-curvature="0" /><rect
       y="233.89407"
       x="153.47441"
       height="42.194511"
       width="181.43576"
       id="rect5409"
       style="fill:#d7deed;fill-opacity:1;stroke:#d7deed;stroke-width:0;stroke-miterlimit:4;stroke-dasharray:none;stroke-opacity:1" /></g></svg>