<svg id="Layer_1" data-name="Layer 1" xmlns="http://www.w3.org/2000/svg" viewBox="0 0 437.51 254.97"><defs><style>.cls-1{fill:#201e5a;}</style></defs><path class="cls-1" d="M219.37,196.72l-.27.1a168.18,168.18,0,0,1-44.45,10.32l-22.46,24.09a109,109,0,0,0,42.94,21.16A96,96,0,0,0,217.05,255c28.1,0,55.4-12.86,81.4-38.43L380.25,129l-160.6,67.6Z"/><path class="cls-1" d="M388.94,0H0C.5,6.38,2.86,27.24,13.18,47.82,29.59,80.54,57.33,97.13,95.63,97.13H388.94a48.57,48.57,0,1,0,0-97.13Z"/><path class="cls-1" d="M74.92,137.61a109.08,109.08,0,0,0,30.51,36.89c17.09,13,36.69,19.55,58.6,19.55q23.44,0,50.35-10L388.7,110.71h-250Z"/></svg>