<svg id="Capa_1" data-name="Capa 1" xmlns="http://www.w3.org/2000/svg" viewBox="0 0 697.38 496.14"><title>hero</title><path d="M373,385v-21.4a2.12,2.12,0,0,0-2.11-2.11h-37a2.12,2.12,0,0,0-2.11,2.11V385Z" transform="translate(-22.16 -34.6)" style="fill:none;stroke:#484a7d;stroke-miterlimit:10;stroke-width:2px"/><path d="M314.07,385v-21.4a2.12,2.12,0,0,0-2.11-2.11H275a2.12,2.12,0,0,0-2.11,2.11V385Z" transform="translate(-22.16 -34.6)" style="fill:none;stroke:#484a7d;stroke-miterlimit:10;stroke-width:2px"/><path d="M254.89,385v-21.4a2.12,2.12,0,0,0-2.11-2.11h-37a2.12,2.12,0,0,0-2.11,2.11V385Z" transform="translate(-22.16 -34.6)" style="fill:none;stroke:#484a7d;stroke-miterlimit:10;stroke-width:2px"/><circle cx="256.07" cy="248.39" r="228.05" style="fill:#f7f7f8"/><path d="M59.83,414.94a2,2,0,0,1-1.72-1,254.47,254.47,0,0,1-7.48-247.38,256.36,256.36,0,0,1,76-88.37,2,2,0,1,1,2.36,3.23A249.77,249.77,0,0,0,26.16,283.59,249.77,249.77,0,0,0,61.54,411.92a2,2,0,0,1-1.71,3Z" transform="translate(-22.16 -34.6)" style="fill:#f7f7f8"/><path d="M272.06,530.74A254.78,254.78,0,0,1,80.39,443.58a2,2,0,1,1,3-2.62,250.77,250.77,0,0,0,190,85.78h0a2,2,0,0,1,0,4Z" transform="translate(-22.16 -34.6)" style="fill:#f7f7f8"/><path d="M403.17,503.48a2,2,0,0,1-1-3.73,250.19,250.19,0,0,0-75.48-461.2,2,2,0,0,1,.8-3.92,254.16,254.16,0,0,1,76.7,468.57A2,2,0,0,1,403.17,503.48Z" transform="translate(-22.16 -34.6)" style="fill:#f7f7f8"/><path d="M236.94,43.74a2,2,0,0,1-.28-4,255.9,255.9,0,0,1,51.43-2.09,2,2,0,0,1-.24,4,252,252,0,0,0-50.62,2.06Z" transform="translate(-22.16 -34.6)" style="fill:#f7f7f8"/><circle cx="506.23" cy="84.95" r="3.52" style="fill:#d8d9dd"/><path d="M547.93,385.27H99.48c-2.91,0-5.28-1.91-5.28-4.27V163.33c0-2.36,2.36-4.27,5.28-4.27H547.93c2.92,0,5.28,1.91,5.28,4.27V381C553.2,383.37,550.84,385.27,547.93,385.27Z" transform="translate(-22.16 -34.6)" style="fill:#edeef0;stroke:#484a7d;stroke-miterlimit:10;stroke-width:2px"/><path d="M232.75,246.79H215.68a2.13,2.13,0,0,1-2.13-2.13V223.32a2.13,2.13,0,0,1,2.13-2.13h17.07a2.13,2.13,0,0,1,2.13,2.13v21.34A2.13,2.13,0,0,1,232.75,246.79Z" transform="translate(-22.16 -34.6)" style="fill:#d8d9dd"/><path d="M498.29,174.43h-10a1.25,1.25,0,0,1,0-2.51h10a1.25,1.25,0,0,1,0,2.51Z" transform="translate(-22.16 -34.6)" style="fill:#00c2de"/><path d="M247.28,206H213.13a2.13,2.13,0,0,1,0-4.27h34.15a2.13,2.13,0,0,1,0,4.27Z" transform="translate(-22.16 -34.6)" style="fill:#d8d9dd"/><path d="M273.3,242.52H243.42a2.13,2.13,0,0,1,0-4.27H273.3a2.13,2.13,0,0,1,0,4.27Z" transform="translate(-22.16 -34.6)" style="fill:#d8d9dd"/><path d="M286.11,229.72H243.42a2.13,2.13,0,0,1,0-4.27h42.68a2.13,2.13,0,1,1,0,4.27Z" transform="translate(-22.16 -34.6)" style="fill:#d8d9dd"/><path d="M318.12,246.79H301a2.13,2.13,0,0,1-2.13-2.13V223.32a2.13,2.13,0,0,1,2.13-2.13h17.07a2.13,2.13,0,0,1,2.13,2.13v21.34A2.13,2.13,0,0,1,318.12,246.79Z" transform="translate(-22.16 -34.6)" style="fill:#d8d9dd"/><path d="M358.67,242.52H328.79a2.13,2.13,0,0,1,0-4.27h29.88a2.13,2.13,0,1,1,0,4.27Z" transform="translate(-22.16 -34.6)" style="fill:#d8d9dd"/><path d="M371.47,229.72H328.79a2.13,2.13,0,0,1,0-4.27h42.68a2.13,2.13,0,0,1,0,4.27Z" transform="translate(-22.16 -34.6)" style="fill:#d8d9dd"/><rect x="72.12" y="124.79" width="51.65" height="225.57" style="fill:#484a7d"/><path d="M260.08,193.2h-47a4.27,4.27,0,1,1,0-8.54h47a4.27,4.27,0,1,1,0,8.54Z" transform="translate(-22.16 -34.6)" style="fill:#484a7d"/><circle cx="90.7" cy="112.33" r="3.72"/><circle cx="102.67" cy="112.33" r="3.72"/><circle cx="114.65" cy="112.33" r="3.72"/><circle cx="451.37" cy="146.72" r="2.27" style="fill:#00c2de"/><path d="M449.18,195.48h-9.06a1.13,1.13,0,0,1,0-2.27h9.06a1.13,1.13,0,0,1,0,2.27Z" transform="translate(-22.16 -34.6)" style="fill:#00c2de"/><circle cx="412.86" cy="160.32" r="2.27" style="fill:#00c2de"/><path d="M480.89,234h-9.06a1.13,1.13,0,0,1,0-2.27h9.06a1.13,1.13,0,0,1,0,2.27Z" transform="translate(-22.16 -34.6)" style="fill:#00c2de"/><circle cx="444.58" cy="198.83" r="2.27" style="fill:#00c2de"/><path d="M415.2,213.6h-9.06a1.13,1.13,0,0,1,0-2.27h9.06a1.13,1.13,0,0,1,0,2.27Z" transform="translate(-22.16 -34.6)" style="fill:#00c2de"/><circle cx="378.88" cy="178.44" r="2.27" style="fill:#00c2de"/><path d="M435.59,249.84h-9.06a1.13,1.13,0,0,1,0-2.27h9.06a1.13,1.13,0,0,1,0,2.27Z" transform="translate(-22.16 -34.6)" style="fill:#00c2de"/><circle cx="399.27" cy="214.68" r="2.27" style="fill:#00c2de"/><path d="M433.9,215.83a7.4,7.4,0,1,1,7.4-7.4A7.41,7.41,0,0,1,433.9,215.83Z" transform="translate(-22.16 -34.6)" style="fill:none;stroke:#00c2de;stroke-miterlimit:10;stroke-width:2px"/><path d="M401.48,232a7.4,7.4,0,1,1,7.4-7.4A7.41,7.41,0,0,1,401.48,232Z" transform="translate(-22.16 -34.6)" style="fill:none;stroke:#00c2de;stroke-miterlimit:10;stroke-width:2px"/><path d="M453.39,238.52a7.4,7.4,0,1,1,7.36-7.44A7.41,7.41,0,0,1,453.39,238.52Z" transform="translate(-22.16 -34.6)" style="fill:none;stroke:#00c2de;stroke-miterlimit:10;stroke-width:2px"/><path d="M417.69,245a7.4,7.4,0,1,1,7.4-7.4A7.41,7.41,0,0,1,417.69,245Z" transform="translate(-22.16 -34.6)" style="fill:none;stroke:#00c2de;stroke-miterlimit:10;stroke-width:2px"/><path d="M472.81,202.86a7.4,7.4,0,1,1,7.4-7.4A7.41,7.41,0,0,1,472.81,202.86Z" transform="translate(-22.16 -34.6)" style="fill:none;stroke:#00c2de;stroke-miterlimit:10;stroke-width:2px"/><path d="M437.89,213.22" transform="translate(-22.16 -34.6)" style="stroke:#010101;stroke-linecap:round;stroke-linejoin:round;stroke-width:2px"/><path d="M430,213.33" transform="translate(-22.16 -34.6)" style="stroke:#010101;stroke-linecap:round;stroke-linejoin:round"/><path d="M554.86,134.26a1,1,0,0,1,1,1V440.49a1,1,0,0,1-1,1h-462a1,1,0,0,1-1-1V135.26a1,1,0,0,1,1-1h462m0-2h-462a3,3,0,0,0-3,3V440.49a3,3,0,0,0,3,3h462a3,3,0,0,0,3-3V135.26a3,3,0,0,0-3-3Z" transform="translate(-22.16 -34.6)" style="fill:#484a7d"/><path d="M379.22,497.42H265V441.27H379.22Zm-112.18-2H377.22V443.27H267Z" transform="translate(-22.16 -34.6)" style="fill:#484a7d"/><path d="M406.71,497.42H237.55a1,1,0,0,1,0-2H406.71a1,1,0,0,1,0,2Z" transform="translate(-22.16 -34.6)" style="fill:#484a7d"/><line x1="67.66" y1="350.87" x2="535.7" y2="350.87" style="fill:none;stroke:#484a7d;stroke-miterlimit:10;stroke-width:2px"/><line x1="362.46" y1="205.78" x2="373.79" y2="194.95" style="fill:none;stroke:#00c2de;stroke-miterlimit:10;stroke-width:2px"/><line x1="386.25" y1="192.64" x2="390.89" y2="197.29" style="fill:none;stroke:#00c2de;stroke-miterlimit:10;stroke-width:2px"/><line x1="400.4" y1="197.44" x2="407.87" y2="180.7" style="fill:none;stroke:#00c2de;stroke-miterlimit:10;stroke-width:2px"/><line x1="417.53" y1="178.44" x2="427.64" y2="190.04" style="fill:none;stroke:#00c2de;stroke-miterlimit:10;stroke-width:2px"/><line x1="436.58" y1="191.46" x2="447.41" y2="168.26" style="fill:none;stroke:#00c2de;stroke-miterlimit:10;stroke-width:2px"/><path d="M127.51,228.43H114.7a2.13,2.13,0,0,1-2.13-2.13V209.22a2.13,2.13,0,0,1,2.13-2.13h12.8a2.13,2.13,0,0,1,2.13,2.13V226.3A2.13,2.13,0,0,1,127.51,228.43Z" transform="translate(-22.16 -34.6)" style="fill:none;stroke:#00c2de;stroke-miterlimit:10;stroke-width:2px"/><path d="M127.51,258.31H114.7a2.13,2.13,0,0,1-2.13-2.13V239.1A2.13,2.13,0,0,1,114.7,237h12.8a2.13,2.13,0,0,1,2.13,2.13v17.07A2.13,2.13,0,0,1,127.51,258.31Z" transform="translate(-22.16 -34.6)" style="fill:none;stroke:#00c2de;stroke-miterlimit:10;stroke-width:2px"/><path d="M127.51,288.19H114.7a2.13,2.13,0,0,1-2.13-2.13V269a2.13,2.13,0,0,1,2.13-2.13h12.8a2.13,2.13,0,0,1,2.13,2.13v17.07A2.13,2.13,0,0,1,127.51,288.19Z" transform="translate(-22.16 -34.6)" style="fill:none;stroke:#00c2de;stroke-miterlimit:10;stroke-width:2px"/><path d="M127.51,318.06H114.7a2.13,2.13,0,0,1-2.13-2.13V298.86a2.13,2.13,0,0,1,2.13-2.13h12.8a2.13,2.13,0,0,1,2.13,2.13v17.07A2.13,2.13,0,0,1,127.51,318.06Z" transform="translate(-22.16 -34.6)" style="fill:none;stroke:#00c2de;stroke-miterlimit:10;stroke-width:2px"/><path d="M127.51,347.94H114.7a2.13,2.13,0,0,1-2.13-2.13V328.73a2.13,2.13,0,0,1,2.13-2.13h12.8a2.13,2.13,0,0,1,2.13,2.13v17.07A2.13,2.13,0,0,1,127.51,347.94Z" transform="translate(-22.16 -34.6)" style="fill:none;stroke:#00c2de;stroke-miterlimit:10;stroke-width:2px"/><path d="M113.91,184.62l3.19-.25c-2.52-1.5-4.44-3.38-5.14-6.43a11.6,11.6,0,0,0,4.65.82c-3.65-2.35-5.1-5.78-6.26-9.88a20,20,0,0,0,10,5.34,43.67,43.67,0,0,0,9.45,1.33c1.79.06,2.45.93,1.92,2.68a16.26,16.26,0,0,1-5.8,8.59A7.11,7.11,0,0,1,119,187.9,13,13,0,0,1,113.91,184.62Z" transform="translate(-22.16 -34.6)" style="fill:#fff"/><rect x="188.84" y="232.25" width="278.55" height="10.67" style="fill:#00c2de"/><rect x="188.84" y="250.39" width="278.55" height="10.67" style="fill:#00c2de"/><rect x="188.84" y="268.53" width="278.55" height="10.67" style="fill:#00c2de"/><rect x="188.84" y="286.67" width="278.55" height="10.67" style="fill:#00c2de"/><path d="M577,188.8a2.74,2.74,0,0,1-2.74-2.74A13.71,13.71,0,0,1,588,172.37a2.74,2.74,0,1,1,0,5.48,8.23,8.23,0,0,0-8.22,8.22A2.74,2.74,0,0,1,577,188.8Z" transform="translate(-22.16 -34.6)" style="fill:#d8d9dd"/><path d="M566.08,177.85a2.74,2.74,0,0,1,0-5.48,8.23,8.23,0,0,0,8.22-8.22,2.74,2.74,0,1,1,5.48,0A13.71,13.71,0,0,1,566.08,177.85Z" transform="translate(-22.16 -34.6)" style="fill:#d8d9dd"/><path d="M577,188.8a2.74,2.74,0,0,1-2.74-2.74,8.23,8.23,0,0,0-8.22-8.22,2.74,2.74,0,0,1,0-5.48,13.71,13.71,0,0,1,13.69,13.69A2.74,2.74,0,0,1,577,188.8Z" transform="translate(-22.16 -34.6)" style="fill:#d8d9dd"/><path d="M588,177.85a13.71,13.71,0,0,1-13.69-13.69,2.74,2.74,0,1,1,5.48,0,8.23,8.23,0,0,0,8.22,8.22,2.74,2.74,0,1,1,0,5.48Z" transform="translate(-22.16 -34.6)" style="fill:#d8d9dd"/><path d="M367.9,385v-21.4a2.12,2.12,0,0,0-2.11-2.11h-37a2.12,2.12,0,0,0-2.11,2.11V385Z" transform="translate(-22.16 -34.6)" style="fill:#484a7d;stroke:#484a7d;stroke-miterlimit:10;stroke-width:2px"/><path d="M425.61,385v-21.4a2.12,2.12,0,0,0-2.11-2.11h-37a2.12,2.12,0,0,0-2.11,2.11V385Z" transform="translate(-22.16 -34.6)" style="fill:#00c2de;stroke:#484a7d;stroke-miterlimit:10;stroke-width:2px"/><path d="M486,385v-21.4a2.12,2.12,0,0,0-2.11-2.11h-37a2.12,2.12,0,0,0-2.11,2.11V385Z" transform="translate(-22.16 -34.6)" style="fill:none;stroke:#484a7d;stroke-miterlimit:10;stroke-width:2px"/><path d="M309,385v-21.4a2.12,2.12,0,0,0-2.11-2.11h-37a2.12,2.12,0,0,0-2.11,2.11V385Z" transform="translate(-22.16 -34.6)" style="fill:#c2c3c9;stroke:#484a7d;stroke-miterlimit:10;stroke-width:2px"/><path d="M249.8,385v-21.4a2.12,2.12,0,0,0-2.11-2.11h-37a2.12,2.12,0,0,0-2.11,2.11V385Z" transform="translate(-22.16 -34.6)" style="fill:#00c2de;stroke:#484a7d;stroke-miterlimit:10;stroke-width:2px"/><path d="M636.89,218.57H506a12.36,12.36,0,0,0-12.32,12.32v97A12.36,12.36,0,0,0,506,340.24h28.11v16.94L558,340.24h78.93a12.36,12.36,0,0,0,12.32-12.32v-97A12.36,12.36,0,0,0,636.89,218.57Z" transform="translate(-22.16 -34.6)" style="fill:#fff;stroke:#484a7d;stroke-miterlimit:10;stroke-width:2px"/><path d="M678.44,50.24H547.53a12.36,12.36,0,0,0-12.32,12.32v97a12.36,12.36,0,0,0,12.32,12.32h28.11v16.94l23.87-16.94h78.93a12.36,12.36,0,0,0,12.32-12.32v-97A12.36,12.36,0,0,0,678.44,50.24Z" transform="translate(-22.16 -34.6)" style="fill:#fff;stroke:#484a7d;stroke-miterlimit:10;stroke-width:2px"/><path d="M335.28,62.54H456.61A11.45,11.45,0,0,1,468,74v89.92a11.45,11.45,0,0,1-11.42,11.42h-26V191l-22.12-15.7H335.28a11.45,11.45,0,0,1-11.42-11.42V74A11.45,11.45,0,0,1,335.28,62.54Z" transform="translate(-22.16 -34.6)" style="fill:#fff;stroke:#484a7d;stroke-miterlimit:10;stroke-width:2px"/><path d="M594.36,293.86a8.47,8.47,0,0,0,.12-1.32V257.41c0-5.11-4.57-9.3-10.16-9.3H545.94c-5.59,0-10.16,4.18-10.16,9.3v35.12a8.47,8.47,0,0,0,.12,1.32Z" transform="translate(-22.16 -34.6)" style="fill:#fff;stroke:#484a7d;stroke-miterlimit:10;stroke-width:2px"/><path d="M535.79,255.16" transform="translate(-22.16 -34.6)" style="fill:none;stroke:#fff;stroke-linecap:round;stroke-linejoin:round;stroke-width:3px"/><path d="M587.56,255.16" transform="translate(-22.16 -34.6)" style="fill:none;stroke:#fff;stroke-linecap:round;stroke-linejoin:round;stroke-width:3px"/><rect x="511.18" y="259.27" width="88.47" height="9.03" rx="3" ry="3" style="fill:#f7f7f8;stroke:#484a7d;stroke-miterlimit:10;stroke-width:2px"/><polygon points="587.62 224.27 598.29 237.78 598.29 259.27 572.31 259.27 572.31 227.75 573.9 224.27 587.62 224.27" style="fill:#f7f7f8;stroke:#484a7d;stroke-linecap:round;stroke-linejoin:round;stroke-width:2px"/><circle cx="525.78" cy="271.28" r="7.52" style="fill:#fff;stroke:#484a7d;stroke-miterlimit:10;stroke-width:2px"/><circle cx="525.78" cy="270.86" r="2.56" style="fill:#2f3b64"/><polygon points="577.6 243.66 592.19 243.66 592.19 239.08 585.3 229.72 577.6 229.72 577.6 243.66" style="fill:#00c2de;stroke:#00c2de;stroke-linecap:round;stroke-linejoin:round;stroke-width:3px"/><line x1="585.3" y1="247.8" x2="577.6" y2="247.8" style="fill:none;stroke:#484a7d;stroke-linecap:round;stroke-linejoin:round;stroke-width:2px"/><circle cx="586.97" cy="270.86" r="7.52" style="fill:#fff;stroke:#484a7d;stroke-miterlimit:10;stroke-width:2px"/><circle cx="586.97" cy="270.44" r="2.56" style="fill:#2f3b64"/><line x1="504.59" y1="278.8" x2="566.2" y2="278.8" style="fill:none;stroke:#484a7d;stroke-linecap:round;stroke-linejoin:round;stroke-width:2px"/><line x1="569.58" y1="278.8" x2="602.53" y2="278.8" style="fill:none;stroke:#484a7d;stroke-linecap:round;stroke-linejoin:round;stroke-width:2px"/><line x1="501.85" y1="229.97" x2="508.19" y2="229.97" style="fill:none;stroke:#484a7d;stroke-linecap:round;stroke-linejoin:round;stroke-width:2px"/><line x1="492.69" y1="243.66" x2="508.19" y2="243.66" style="fill:none;stroke:#484a7d;stroke-linecap:round;stroke-linejoin:round;stroke-width:2px"/><line x1="487.76" y1="236.99" x2="508.19" y2="236.99" style="fill:none;stroke:#484a7d;stroke-linecap:round;stroke-linejoin:round;stroke-width:2px"/><polyline points="379.99 67.2 336.22 67.2 336.22 115.54 397.63 115.54 397.63 67.2 389.79 67.2" style="fill:#00c2de;stroke:#484a7d;stroke-linecap:round;stroke-linejoin:round;stroke-width:2px"/><rect x="397.63" y="67.2" width="14.37" height="48.34" style="fill:#00c2de;stroke:#484a7d;stroke-linecap:round;stroke-linejoin:round;stroke-width:2px"/><polygon points="349.94 67.2 343.41 57.4 328.38 57.4 336.22 67.2 349.94 67.2" style="fill:#00c2de;stroke:#484a7d;stroke-linecap:round;stroke-linejoin:round;stroke-width:2px"/><polygon points="397.63 67.2 404.81 57.83 418.86 57.83 412.65 67.2 397.63 67.2" style="fill:#00c2de;stroke:#484a7d;stroke-linecap:round;stroke-linejoin:round;stroke-width:2px"/><line x1="366.27" y1="84.18" x2="336.22" y2="84.18" style="fill:none;stroke:#484a7d;stroke-linecap:round;stroke-linejoin:round;stroke-width:2px"/><polyline points="373.13 83.53 373.13 107.81 342.1 107.81" style="fill:none;stroke:#484a7d;stroke-linecap:round;stroke-linejoin:round;stroke-width:2px"/><path d="M371,134.3l2.14-.17a6.66,6.66,0,0,1-3.45-4.32,7.8,7.8,0,0,0,3.12.55c-2.45-1.58-3.43-3.88-4.2-6.64a13.43,13.43,0,0,0,6.7,3.59,29.34,29.34,0,0,0,6.35.9c1.2,0,1.65.63,1.29,1.8a10.92,10.92,0,0,1-3.89,5.77,4.78,4.78,0,0,1-4.65.71A8.71,8.71,0,0,1,371,134.3Z" transform="translate(-22.16 -34.6)" style="fill:#fff"/><path d="M648,93.8v60.62h-6.76V93.8H648m1-2h-8.76a1,1,0,0,0-1,1v62.62a1,1,0,0,0,1,1H649a1,1,0,0,0,1-1V92.8a1,1,0,0,0-1-1Z" transform="translate(-22.16 -34.6)" style="fill:#484a7d"/><path d="M593.17,94.1v60.58h-7.71V94.1h7.71m1-2h-9.71a1,1,0,0,0-1,1v62.58a1,1,0,0,0,1,1h9.71a1,1,0,0,0,1-1V93.1a1,1,0,0,0-1-1Z" transform="translate(-22.16 -34.6)" style="fill:#484a7d"/><rect x="577.55" y="65.19" width="20.34" height="20.34" rx="2" ry="2" style="fill:#77bed9;stroke:#484a7d;stroke-miterlimit:10;stroke-width:2px"/><rect x="590.83" y="92.81" width="20.34" height="20.34" rx="2" ry="2" style="fill:#77bed9;stroke:#484a7d;stroke-miterlimit:10;stroke-width:2px"/><path d="M617,68.62h0m-.24.1L648.5,80.94v7.65h-58a2,2,0,0,0-.67.12h-2.41a2,2,0,0,0-.67-.12H585V81l31.8-12.25M585,80.89h0m31.77-14.2a1.38,1.38,0,0,0-.62.14L584.2,79.13A1.84,1.84,0,0,0,583,80.92v7.79a1.88,1.88,0,0,0,1.88,1.88h1.88v.12h3.76v-.12h58.13a1.88,1.88,0,0,0,1.88-1.88V80.92a1.65,1.65,0,0,0-1.13-1.78l-31.93-12.3a1.87,1.87,0,0,0-.69-.14Z" transform="translate(-22.16 -34.6)" style="fill:#484a7d"/><line x1="572.07" y1="87.05" x2="616.66" y2="87.05" style="fill:none;stroke:#484a7d;stroke-linecap:round;stroke-linejoin:round;stroke-width:2px"/><line x1="572.07" y1="114.64" x2="616.66" y2="114.64" style="fill:none;stroke:#484a7d;stroke-linecap:round;stroke-linejoin:round;stroke-width:2px"/><line x1="587.72" y1="65.64" x2="587.72" y2="71.13" style="fill:#77bed9;stroke:#484a7d;stroke-linecap:round;stroke-linejoin:round;stroke-width:2px"/><line x1="601" y1="92.81" x2="601" y2="98.31" style="fill:#77bed9;stroke:#484a7d;stroke-linecap:round;stroke-linejoin:round;stroke-width:2px"/><path d="M73,100.57a3.42,3.42,0,0,1-3.42-3.42V90.31a3.42,3.42,0,0,1,6.84,0v6.84A3.42,3.42,0,0,1,73,100.57Z" transform="translate(-22.16 -34.6)" style="fill:#d8d9dd"/><path d="M73,127.94a3.42,3.42,0,0,1-3.42-3.42v-6.84a3.42,3.42,0,1,1,6.84,0v6.84A3.42,3.42,0,0,1,73,127.94Z" transform="translate(-22.16 -34.6)" style="fill:#d8d9dd"/><path d="M73,110.83a3.39,3.39,0,1,1,2.43-1A3.6,3.6,0,0,1,73,110.83Z" transform="translate(-22.16 -34.6)" style="fill:#d8d9dd"/><path d="M62.75,110.83H55.91a3.42,3.42,0,0,1,0-6.84h6.84a3.42,3.42,0,0,1,0,6.84Z" transform="translate(-22.16 -34.6)" style="fill:#d8d9dd"/><path d="M90.12,110.83H83.28a3.42,3.42,0,0,1,0-6.84h6.84a3.42,3.42,0,0,1,0,6.84Z" transform="translate(-22.16 -34.6)" style="fill:#d8d9dd"/><path d="M684.56,224.8a2.46,2.46,0,0,1-2.46-2.46A12.32,12.32,0,0,1,694.41,210a2.46,2.46,0,0,1,0,4.92,7.4,7.4,0,0,0-7.39,7.39A2.46,2.46,0,0,1,684.56,224.8Z" transform="translate(-22.16 -34.6)" style="fill:#d8d9dd"/><path d="M674.72,215a2.46,2.46,0,0,1,0-4.92,7.4,7.4,0,0,0,7.39-7.39,2.46,2.46,0,1,1,4.92,0A12.32,12.32,0,0,1,674.72,215Z" transform="translate(-22.16 -34.6)" style="fill:#d8d9dd"/><path d="M684.56,224.8a2.46,2.46,0,0,1-2.46-2.46,7.4,7.4,0,0,0-7.39-7.39,2.46,2.46,0,0,1,0-4.92A12.32,12.32,0,0,1,687,222.34,2.46,2.46,0,0,1,684.56,224.8Z" transform="translate(-22.16 -34.6)" style="fill:#d8d9dd"/><path d="M694.41,215a12.32,12.32,0,0,1-12.31-12.31,2.46,2.46,0,1,1,4.92,0,7.4,7.4,0,0,0,7.39,7.39,2.46,2.46,0,0,1,0,4.92Z" transform="translate(-22.16 -34.6)" style="fill:#d8d9dd"/><path d="M595.89,440.58a4.21,4.21,0,0,1-4.21-4.21,21.09,21.09,0,0,1,21.06-21.06,4.21,4.21,0,1,1,0,8.42,12.65,12.65,0,0,0-12.64,12.64A4.21,4.21,0,0,1,595.89,440.58Z" transform="translate(-22.16 -34.6)" style="fill:#d8d9dd"/><path d="M579,423.73a4.21,4.21,0,0,1,0-8.42,12.65,12.65,0,0,0,12.64-12.64,4.21,4.21,0,0,1,8.42,0A21.09,21.09,0,0,1,579,423.73Z" transform="translate(-22.16 -34.6)" style="fill:#d8d9dd"/><path d="M595.89,440.58a4.21,4.21,0,0,1-4.21-4.21A12.65,12.65,0,0,0,579,423.73a4.21,4.21,0,0,1,0-8.42,21.09,21.09,0,0,1,21.06,21.06A4.21,4.21,0,0,1,595.89,440.58Z" transform="translate(-22.16 -34.6)" style="fill:#d8d9dd"/><path d="M612.74,423.73a21.09,21.09,0,0,1-21.06-21.06,4.21,4.21,0,0,1,8.42,0,12.65,12.65,0,0,0,12.64,12.64,4.21,4.21,0,1,1,0,8.42Z" transform="translate(-22.16 -34.6)" style="fill:#d8d9dd"/><circle cx="569.58" cy="338.6" r="3.52" style="fill:#d8d9dd"/><path d="M707.76,392.37l3.28-3.28a2.69,2.69,0,0,0-3.81-3.81L703.56,389a38.16,38.16,0,0,0-19.68-7.22v-3.41h6.3a2.77,2.77,0,0,0,2.76-2.76V365.21a2.77,2.77,0,0,0-2.76-2.76h-18a2.77,2.77,0,0,0-2.76,2.76v10.24a2.77,2.77,0,0,0,2.76,2.76h6.3v3.41a37.8,37.8,0,1,0,29.26,10.76Zm-32.81-19.68v-4.86h12.6v4.86Z" transform="translate(-22.16 -34.6)" style="fill:none;stroke:#484a7d;stroke-miterlimit:10"/><path d="M681.25,395.92a2.77,2.77,0,0,0-2.76,2.76v19.16a2.76,2.76,0,0,0,5.51,0V398.67A2.77,2.77,0,0,0,681.25,395.92Z" transform="translate(-22.16 -34.6)" style="fill:#484a7d"/></svg>