<svg id="Layer_1" data-name="Layer 1" xmlns="http://www.w3.org/2000/svg" xmlns:xlink="http://www.w3.org/1999/xlink" viewBox="0 0 679.34 153.72"><defs><style>.cls-1{fill:#201e5a;}.cls-2{fill:url(#linear-gradient);}.cls-3{fill:url(#linear-gradient-2);}.cls-4{fill:url(#linear-gradient-3);}</style><linearGradient id="linear-gradient" x1="121.59" y1="315.32" x2="243.94" y2="315.32" gradientUnits="userSpaceOnUse"><stop offset="0" stop-color="#252159"/><stop offset="1" stop-color="#0078b6"/></linearGradient><linearGradient id="linear-gradient-2" x1="78.94" y1="302.25" x2="243.94" y2="302.25" gradientUnits="userSpaceOnUse"><stop offset="0" stop-color="#23c1dd"/><stop offset="0.13" stop-color="#18aad0"/><stop offset="0.3" stop-color="#0d94c5"/><stop offset="0.49" stop-color="#0684bc"/><stop offset="0.7" stop-color="#017bb8"/><stop offset="1" stop-color="#0078b6"/></linearGradient><linearGradient id="linear-gradient-3" x1="56.33" y1="281.48" x2="243.95" y2="281.48" gradientUnits="userSpaceOnUse"><stop offset="0" stop-color="#7ac89b"/><stop offset="0.04" stop-color="#71c7a2"/><stop offset="0.19" stop-color="#55c5b7"/><stop offset="0.35" stop-color="#3fc3c8"/><stop offset="0.52" stop-color="#2fc2d4"/><stop offset="0.72" stop-color="#26c1db"/><stop offset="1" stop-color="#23c1dd"/></linearGradient></defs><path class="cls-1" d="M432.18,282.23a44.53,44.53,0,0,0-15.73,2.71,34,34,0,0,0-12.28,7.78V267.28A17.15,17.15,0,0,0,387,250.13h-8.41V357.3A14.37,14.37,0,0,0,393,371.67h11.19V328.1q0-11.79,5.73-17.77t15.4-6q8.68,0,13.27,5.16t4.58,15.64V359a12.65,12.65,0,0,0,12.66,12.65h12.9V321.22q0-19.32-10.08-29.16T432.18,282.23Z" transform="translate(-56.33 -250.13)"/><path class="cls-1" d="M510.78,253.29a13.35,13.35,0,0,0-9.22-3.16,13,13,0,0,0-9.22,3.29,11.15,11.15,0,0,0,0,16.34,13,13,0,0,0,9.22,3.29,12.89,12.89,0,0,0,9.22-3.36,11.19,11.19,0,0,0,3.56-8.5A10.14,10.14,0,0,0,510.78,253.29Z" transform="translate(-56.33 -250.13)"/><path class="cls-1" d="M656.82,253.42a13.35,13.35,0,0,0-9.22-3.16,13,13,0,0,0-9.22,3.29,11.15,11.15,0,0,0,0,16.34,13,13,0,0,0,9.22,3.29,12.89,12.89,0,0,0,9.22-3.36,11.19,11.19,0,0,0,3.55-8.5A10.13,10.13,0,0,0,656.82,253.42Z" transform="translate(-56.33 -250.13)"/><path class="cls-1" d="M497.09,281.25h-8.31v74.48a15.94,15.94,0,0,0,16,15.94h9.61V298.49A17.24,17.24,0,0,0,497.09,281.25Z" transform="translate(-56.33 -250.13)"/><path class="cls-1" d="M644.66,281.25h-9.84v74.13a16.29,16.29,0,0,0,16.29,16.29h9.26V297A15.71,15.71,0,0,0,644.66,281.25Z" transform="translate(-56.33 -250.13)"/><path class="cls-1" d="M735.1,354a17.83,17.83,0,0,0-2.67-5.55h0c-3.28,2.06-10.07,4.27-13.79,4.27q-5.24,0-8.1-3c-1.92-2-2.87-4.88-2.87-8.6V300.56H723a10.88,10.88,0,0,0,10.87-10.88V280.9H707.67V262.26a12.13,12.13,0,0,0-12.13-12.13H682.12v91.24q0,15.57,8.6,23.59c2.86,2.67,5,4.56,7.81,5.84l.55.24h0c5.17,2.41,18.75,4.55,27.9.69a14,14,0,0,0,8.19-9.75A15.35,15.35,0,0,0,735.1,354Z" transform="translate(-56.33 -250.13)"/><path class="cls-1" d="M617.06,305.36a38.59,38.59,0,0,0-9.95-14.54A40.23,40.23,0,0,0,592,282.37a63.88,63.88,0,0,0-19-2.72A65.38,65.38,0,0,0,554.74,282a59.84,59.84,0,0,0-13.51,5.54,17.51,17.51,0,0,0-5.73,5.26,13.45,13.45,0,0,0-1.78,7.32v89c0,4.13.92,7.75,2.4,10,2.17,3.25,5.75,4.33,11.71,4.77a74.26,74.26,0,0,0,9.73-.44V370.31a54.91,54.91,0,0,0,8.35,2.54,46.36,46.36,0,0,0,10,1,51.62,51.62,0,0,0,17.93-3,37.82,37.82,0,0,0,14.08-9A42.51,42.51,0,0,0,617.25,347a57.67,57.67,0,0,0,3.38-20.65Q620.63,314.18,617.06,305.36Zm-28.1,41q-6.18,6.7-17.07,6.71a27.38,27.38,0,0,1-8.08-1.09,26.78,26.78,0,0,1-6.44-2.9V302.41a45.39,45.39,0,0,1,6.44-2.72,26.63,26.63,0,0,1,8.63-1.27q10,0,16.34,6.17t6.35,20.88Q595.13,339.63,589,346.35Z" transform="translate(-56.33 -250.13)"/><path class="cls-1" d="M356.56,317.85a35.41,35.41,0,0,0-14.33-10.2,181.3,181.3,0,0,0-21.46-6.47q-12.61-2.88-18.75-5.87-4.9-2.37-5.89-6.75a10.45,10.45,0,0,1-.26-2.35,11.52,11.52,0,0,1,5.33-9.86q4.65-3.27,13.76-3.68,1.31-.06,2.7-.06a37.45,37.45,0,0,1,4.84.34c8.75,1.12,19,5,27.58,9.53a20.35,20.35,0,0,0,4.69-8,16.7,16.7,0,0,0,.84-5.13v0c.53-8.76-9.75-12.86-9.75-12.86-6.92-3.38-16.62-4.88-22.61-5.52a38.67,38.67,0,0,0-5.43-.44c-1,0-1.91,0-2.86.05-9.24.28-17.17,1.89-23.76,4.88q-10.89,4.94-16.29,13.35a34,34,0,0,0-5.41,18.79c0,.34,0,.66,0,1q.23,11.22,6,18.06A34.74,34.74,0,0,0,289.81,317a179.63,179.63,0,0,0,21.46,6.46q8.52,2,13.51,3.75a23.89,23.89,0,0,1,8.19,4.5,8.91,8.91,0,0,1,3.13,5.91c-.19,6.15-2.4,8.23-6.68,11.08-3.67,2.43-11.65,2.4-19.08,2.4a39.31,39.31,0,0,1-4.84-.34A73.75,73.75,0,0,1,288.16,346a101.22,101.22,0,0,1-10.24-4.76,20.15,20.15,0,0,0-4.54,7.54l-.15.46a13.32,13.32,0,0,0-.49,7.57s1.51,8.87,13.42,12.53l.09,0c.36.14.72.27,1.1.39l.25.07a90.64,90.64,0,0,0,26.29,3.83q15.72,0,26.7-4.93t16.46-13.36a33.37,33.37,0,0,0,5.49-18.62Q362.54,324.82,356.56,317.85Z" transform="translate(-56.33 -250.13)"/><path class="cls-2" d="M237.3,266.22a20.82,20.82,0,0,0-29.44,1.08l-86.27,92.51A46.77,46.77,0,0,0,140,368.88c15.36,3.6,30.27-1.58,44.3-15.37l54.06-57.86A20.85,20.85,0,0,0,237.3,266.22Z" transform="translate(-56.33 -250.13)"/><path class="cls-3" d="M242.29,273.37A20.82,20.82,0,0,0,215,262.3L78.94,319.66A46.8,46.8,0,0,0,92,335.48c12.55,9.57,28.27,10.95,46.71,4.11l92.49-38.93h0A20.84,20.84,0,0,0,242.29,273.37Z" transform="translate(-56.33 -250.13)"/><path class="cls-4" d="M223.12,260.65H56.33A58.56,58.56,0,0,0,62,281.16c7,14,18.94,21.14,35.36,21.14H223.12a20.83,20.83,0,1,0,0-41.65Z" transform="translate(-56.33 -250.13)"/></svg>